<mxfile host="app.diagrams.net" modified="2021-04-24T14:42:14.600Z" agent="5.0 (Windows NT 10.0; Win64; x64) AppleWebKit/537.36 (KHTML, like Gecko) Chrome/89.0.4389.128 Safari/537.36" etag="4tvXCFqu666LYxsx3wfZ" version="14.6.1" type="github">
  <diagram name="Page-1" id="97916047-d0de-89f5-080d-49f4d83e522f">
    <mxGraphModel dx="1278" dy="548" grid="1" gridSize="10" guides="1" tooltips="1" connect="1" arrows="1" fold="1" page="1" pageScale="1.5" pageWidth="1169" pageHeight="827" background="#ffffff" math="0" shadow="0">
      <root>
        <mxCell id="0" />
        <mxCell id="1" parent="0" />
        <mxCell id="30" value="" style="edgeStyle=elbowEdgeStyle;elbow=vertical;strokeWidth=4;endArrow=block;endFill=1;fontStyle=1;strokeColor=#23445D;entryX=0.5;entryY=0;entryDx=0;entryDy=0;" parent="1" target="n-Sp6RApgWZzmZ5qNMOI-60" edge="1">
          <mxGeometry x="22" y="165.5" width="100" height="100" as="geometry">
            <mxPoint x="772" y="405.5" as="sourcePoint" />
            <mxPoint x="642" y="455.5" as="targetPoint" />
          </mxGeometry>
        </mxCell>
        <mxCell id="31" value="" style="edgeStyle=elbowEdgeStyle;elbow=vertical;strokeWidth=4;endArrow=block;endFill=1;fontStyle=1;strokeColor=#23445D;entryX=0.5;entryY=0;entryDx=0;entryDy=0;" parent="1" target="n-Sp6RApgWZzmZ5qNMOI-56" edge="1">
          <mxGeometry x="22" y="165.5" width="100" height="100" as="geometry">
            <mxPoint x="772" y="405.5" as="sourcePoint" />
            <mxPoint x="402" y="455.5" as="targetPoint" />
          </mxGeometry>
        </mxCell>
        <mxCell id="32" value="" style="edgeStyle=elbowEdgeStyle;elbow=vertical;strokeWidth=4;endArrow=block;endFill=1;fontStyle=1;strokeColor=#23445D;entryX=0.5;entryY=0;entryDx=0;entryDy=0;" parent="1" target="n-Sp6RApgWZzmZ5qNMOI-59" edge="1">
          <mxGeometry x="22" y="165.5" width="100" height="100" as="geometry">
            <mxPoint x="772" y="405.5" as="sourcePoint" />
            <mxPoint x="972" y="455.5" as="targetPoint" />
          </mxGeometry>
        </mxCell>
        <mxCell id="n-Sp6RApgWZzmZ5qNMOI-55" value="总经理" style="rounded=1;whiteSpace=wrap;html=1;" vertex="1" parent="1">
          <mxGeometry x="674" y="350" width="198" height="60" as="geometry" />
        </mxCell>
        <mxCell id="n-Sp6RApgWZzmZ5qNMOI-56" value="项目经理" style="rounded=1;whiteSpace=wrap;html=1;" vertex="1" parent="1">
          <mxGeometry x="230" y="455.5" width="198" height="54.5" as="geometry" />
        </mxCell>
        <mxCell id="n-Sp6RApgWZzmZ5qNMOI-57" value="数据库管理员" style="rounded=1;whiteSpace=wrap;html=1;" vertex="1" parent="1">
          <mxGeometry x="1110" y="452.75" width="198" height="60" as="geometry" />
        </mxCell>
        <mxCell id="n-Sp6RApgWZzmZ5qNMOI-58" value="技术经理" style="rounded=1;whiteSpace=wrap;html=1;" vertex="1" parent="1">
          <mxGeometry x="674" y="455.5" width="198" height="54.5" as="geometry" />
        </mxCell>
        <mxCell id="n-Sp6RApgWZzmZ5qNMOI-59" value="UI设计师" style="rounded=1;whiteSpace=wrap;html=1;" vertex="1" parent="1">
          <mxGeometry x="894" y="455.5" width="198" height="54.5" as="geometry" />
        </mxCell>
        <mxCell id="n-Sp6RApgWZzmZ5qNMOI-60" value="产品经理" style="rounded=1;whiteSpace=wrap;html=1;" vertex="1" parent="1">
          <mxGeometry x="450" y="455.5" width="200" height="54.5" as="geometry" />
        </mxCell>
        <mxCell id="n-Sp6RApgWZzmZ5qNMOI-61" value="" style="edgeStyle=elbowEdgeStyle;elbow=vertical;strokeWidth=4;endArrow=block;endFill=1;fontStyle=1;strokeColor=#23445D;entryX=0.5;entryY=0;entryDx=0;entryDy=0;" edge="1" parent="1" target="n-Sp6RApgWZzmZ5qNMOI-58">
          <mxGeometry x="22.5" y="310" width="100" height="100" as="geometry">
            <mxPoint x="772.5" y="410" as="sourcePoint" />
            <mxPoint x="773" y="450" as="targetPoint" />
          </mxGeometry>
        </mxCell>
        <mxCell id="n-Sp6RApgWZzmZ5qNMOI-64" value="" style="edgeStyle=elbowEdgeStyle;elbow=vertical;strokeWidth=4;endArrow=block;endFill=1;fontStyle=1;strokeColor=#23445D;entryX=0.5;entryY=0;entryDx=0;entryDy=0;exitX=0.5;exitY=1;exitDx=0;exitDy=0;" edge="1" parent="1" source="n-Sp6RApgWZzmZ5qNMOI-55" target="n-Sp6RApgWZzmZ5qNMOI-57">
          <mxGeometry x="20" y="165.5" width="100" height="100" as="geometry">
            <mxPoint x="770" y="405.5" as="sourcePoint" />
            <mxPoint x="991" y="455.5" as="targetPoint" />
          </mxGeometry>
        </mxCell>
        <mxCell id="n-Sp6RApgWZzmZ5qNMOI-65" value="" style="edgeStyle=elbowEdgeStyle;elbow=vertical;strokeWidth=4;endArrow=block;endFill=1;fontStyle=1;strokeColor=#23445D;entryX=0.5;entryY=0;entryDx=0;entryDy=0;" edge="1" parent="1" target="n-Sp6RApgWZzmZ5qNMOI-69">
          <mxGeometry x="24" y="270" width="100" height="100" as="geometry">
            <mxPoint x="774" y="510" as="sourcePoint" />
            <mxPoint x="644" y="560" as="targetPoint" />
          </mxGeometry>
        </mxCell>
        <mxCell id="n-Sp6RApgWZzmZ5qNMOI-66" value="" style="edgeStyle=elbowEdgeStyle;elbow=vertical;strokeWidth=4;endArrow=block;endFill=1;fontStyle=1;strokeColor=#23445D;entryX=0.5;entryY=0;entryDx=0;entryDy=0;" edge="1" parent="1" target="n-Sp6RApgWZzmZ5qNMOI-68">
          <mxGeometry x="24" y="270" width="100" height="100" as="geometry">
            <mxPoint x="774" y="510" as="sourcePoint" />
            <mxPoint x="974" y="560" as="targetPoint" />
          </mxGeometry>
        </mxCell>
        <mxCell id="n-Sp6RApgWZzmZ5qNMOI-67" value="测试工程师" style="rounded=1;whiteSpace=wrap;html=1;" vertex="1" parent="1">
          <mxGeometry x="676" y="560" width="198" height="54.5" as="geometry" />
        </mxCell>
        <mxCell id="n-Sp6RApgWZzmZ5qNMOI-68" value="测试工程师" style="rounded=1;whiteSpace=wrap;html=1;" vertex="1" parent="1">
          <mxGeometry x="896" y="560" width="198" height="54.5" as="geometry" />
        </mxCell>
        <mxCell id="n-Sp6RApgWZzmZ5qNMOI-69" value="网页工程师" style="rounded=1;whiteSpace=wrap;html=1;" vertex="1" parent="1">
          <mxGeometry x="452" y="560" width="200" height="54.5" as="geometry" />
        </mxCell>
        <mxCell id="n-Sp6RApgWZzmZ5qNMOI-70" value="" style="edgeStyle=elbowEdgeStyle;elbow=vertical;strokeWidth=4;endArrow=block;endFill=1;fontStyle=1;strokeColor=#23445D;entryX=0.5;entryY=0;entryDx=0;entryDy=0;" edge="1" parent="1" target="n-Sp6RApgWZzmZ5qNMOI-67">
          <mxGeometry x="24.5" y="414.5" width="100" height="100" as="geometry">
            <mxPoint x="774.5" y="514.5" as="sourcePoint" />
            <mxPoint x="775" y="554.5" as="targetPoint" />
          </mxGeometry>
        </mxCell>
      </root>
    </mxGraphModel>
  </diagram>
</mxfile>
